<svg width="1245" height="229" viewBox="0 0 1245 229" fill="none" xmlns="http://www.w3.org/2000/svg">
<path d="M0 44.5537H100V228.969H0V44.5537Z" fill="#CF6734"/>
<path d="M110 145.881H210V228.969H110V145.881Z" fill="#CF6734"/>
<path d="M254.531 0V101.396L209.974 145.955V44.5635H110.009L154.555 0H254.531ZM119.663 40.5635H213.974V136.297L250.531 99.7383V4H156.212L119.663 40.5635Z" fill="#CF6734"/>
<path d="M1151.65 137.8C1155.39 131.267 1160.85 125.933 1168.05 121.8C1175.25 117.667 1183.45 115.6 1192.65 115.6C1202.52 115.6 1211.39 117.933 1219.25 122.6C1227.12 127.267 1233.32 133.867 1237.85 142.4C1242.39 150.8 1244.65 160.6 1244.65 171.8C1244.65 182.867 1242.39 192.733 1237.85 201.4C1233.32 210.067 1227.05 216.8 1219.05 221.6C1211.19 226.4 1202.39 228.8 1192.65 228.8C1183.19 228.8 1174.85 226.733 1167.65 222.6C1160.59 218.467 1155.25 213.2 1151.65 206.8V227H1133.45V79H1151.65V137.8ZM1226.05 171.8C1226.05 163.533 1224.39 156.333 1221.05 150.2C1217.72 144.067 1213.19 139.4 1207.45 136.2C1201.85 133 1195.65 131.4 1188.85 131.4C1182.19 131.4 1175.99 133.067 1170.25 136.4C1164.65 139.6 1160.12 144.333 1156.65 150.6C1153.32 156.733 1151.65 163.867 1151.65 172C1151.65 180.267 1153.32 187.533 1156.65 193.8C1160.12 199.933 1164.65 204.667 1170.25 208C1175.99 211.2 1182.19 212.8 1188.85 212.8C1195.65 212.8 1201.85 211.2 1207.45 208C1213.19 204.667 1217.72 199.933 1221.05 193.8C1224.39 187.533 1226.05 180.2 1226.05 171.8Z" fill="#F0F0F0"/>
<path d="M1110.72 117.4V227H1092.52V210.8C1089.06 216.4 1084.19 220.8 1077.92 224C1071.79 227.067 1064.99 228.6 1057.52 228.6C1048.99 228.6 1041.32 226.867 1034.52 223.4C1027.72 219.8 1022.32 214.467 1018.32 207.4C1014.46 200.333 1012.52 191.733 1012.52 181.6V117.4H1030.52V179.2C1030.52 190 1033.26 198.333 1038.72 204.2C1044.19 209.933 1051.66 212.8 1061.12 212.8C1070.86 212.8 1078.52 209.8 1084.12 203.8C1089.72 197.8 1092.52 189.067 1092.52 177.6V117.4H1110.72Z" fill="#F0F0F0"/>
<path d="M990.447 87.6001V227H972.247V163.8H901.247V227H883.047V87.6001H901.247V148.8H972.247V87.6001H990.447Z" fill="#F0F0F0"/>
<path d="M780.034 228.8C771.634 228.8 764.101 227.4 757.434 224.6C750.768 221.667 745.501 217.667 741.634 212.6C737.768 207.4 735.634 201.467 735.234 194.8H754.034C754.568 200.267 757.101 204.733 761.634 208.2C766.301 211.667 772.368 213.4 779.834 213.4C786.768 213.4 792.234 211.867 796.234 208.8C800.234 205.733 802.234 201.867 802.234 197.2C802.234 192.4 800.101 188.867 795.834 186.6C791.568 184.2 784.968 181.867 776.034 179.6C767.901 177.467 761.234 175.333 756.034 173.2C750.968 170.933 746.568 167.667 742.834 163.4C739.234 159 737.434 153.267 737.434 146.2C737.434 140.6 739.101 135.467 742.434 130.8C745.768 126.133 750.501 122.467 756.634 119.8C762.768 117 769.768 115.6 777.634 115.6C789.768 115.6 799.568 118.667 807.034 124.8C814.501 130.933 818.501 139.333 819.034 150H800.834C800.434 144.267 798.101 139.667 793.834 136.2C789.701 132.733 784.101 131 777.034 131C770.501 131 765.301 132.4 761.434 135.2C757.568 138 755.634 141.667 755.634 146.2C755.634 149.8 756.768 152.8 759.034 155.2C761.434 157.467 764.368 159.333 767.834 160.8C771.434 162.133 776.368 163.667 782.634 165.4C790.501 167.533 796.901 169.667 801.834 171.8C806.768 173.8 810.968 176.867 814.434 181C818.034 185.133 819.901 190.533 820.034 197.2C820.034 203.2 818.368 208.6 815.034 213.4C811.701 218.2 806.968 222 800.834 224.8C794.834 227.467 787.901 228.8 780.034 228.8Z" fill="#F0F0F0"/>
<path d="M718.505 117.4V227H700.305V210.8C696.838 216.4 691.971 220.8 685.705 224C679.571 227.067 672.771 228.6 665.305 228.6C656.771 228.6 649.105 226.867 642.305 223.4C635.505 219.8 630.105 214.467 626.105 207.4C622.238 200.333 620.305 191.733 620.305 181.6V117.4H638.305V179.2C638.305 190 641.038 198.333 646.505 204.2C651.971 209.933 659.438 212.8 668.905 212.8C678.638 212.8 686.305 209.8 691.905 203.8C697.505 197.8 700.305 189.067 700.305 177.6V117.4H718.505Z" fill="#F0F0F0"/>
<path d="M487.348 171.8C487.348 160.6 489.615 150.8 494.148 142.4C498.682 133.867 504.882 127.267 512.748 122.6C520.748 117.933 529.682 115.6 539.548 115.6C548.082 115.6 556.015 117.6 563.348 121.6C570.682 125.467 576.282 130.6 580.148 137V79H598.548V227H580.148V206.4C576.548 212.933 571.215 218.333 564.148 222.6C557.082 226.733 548.815 228.8 539.348 228.8C529.615 228.8 520.748 226.4 512.748 221.6C504.882 216.8 498.682 210.067 494.148 201.4C489.615 192.733 487.348 182.867 487.348 171.8ZM580.148 172C580.148 163.733 578.482 156.533 575.148 150.4C571.815 144.267 567.282 139.6 561.548 136.4C555.948 133.067 549.748 131.4 542.948 131.4C536.148 131.4 529.948 133 524.348 136.2C518.748 139.4 514.282 144.067 510.948 150.2C507.615 156.333 505.948 163.533 505.948 171.8C505.948 180.2 507.615 187.533 510.948 193.8C514.282 199.933 518.748 204.667 524.348 208C529.948 211.2 536.148 212.8 542.948 212.8C549.748 212.8 555.948 211.2 561.548 208C567.282 204.667 571.815 199.933 575.148 193.8C578.482 187.533 580.148 180.267 580.148 172Z" fill="#F0F0F0"/>
<path d="M427.619 115.4C440.952 115.4 451.752 119.467 460.019 127.6C468.285 135.6 472.419 147.2 472.419 162.4V227H454.419V165C454.419 154.067 451.685 145.733 446.219 140C440.752 134.133 433.285 131.2 423.819 131.2C414.219 131.2 406.552 134.2 400.819 140.2C395.219 146.2 392.419 154.933 392.419 166.4V227H374.219V117.4H392.419V133C396.019 127.4 400.885 123.067 407.019 120C413.285 116.933 420.152 115.4 427.619 115.4Z" fill="#F0F0F0"/>
<path d="M351.2 87.6001V227H333V87.6001H351.2Z" fill="#F0F0F0"/>
</svg>
